<svg width="171" height="173" viewBox="0 0 171 173" fill="none" xmlns="http://www.w3.org/2000/svg">
<path d="M36.6296 160.23C18.2485 152.398 15.995 128.83 30.7492 122.107L53.5499 109.183L67.9781 131.774C75.2451 141.284 81.4189 150.515 89.8828 158.106" stroke="#FA5D20" stroke-width="11.5286"/>
<path d="M53.5812 111.262L53.5812 159.649" stroke="#FA5D20" stroke-width="11.5286"/>
<path d="M3.66482 160.153L144.112 159.649" stroke="#FA5D20" stroke-width="11.5286"/>
<circle cx="53.5814" cy="68.9415" r="19.3352" stroke="#FA5D20" stroke-width="9.83181"/>
<path d="M85.0333 7.76843L66.1573 40.4624" stroke="#FA5D20" stroke-width="10.0415"/>
<path d="M21.9764 7.76843L40.8523 40.4624" stroke="#FA5D20" stroke-width="10.0415"/>
<path d="M53.4364 0V37.6883" stroke="#FA5D20" stroke-width="10.0415"/>
<circle cx="112.951" cy="147.306" r="7.37965" fill="#FA5D20"/>
<path d="M104.807 132.107V129.928C104.807 124.651 108.209 119.604 115.015 114.787C115.245 114.634 115.895 114.137 116.965 113.296C118.112 112.454 118.801 111.957 119.03 111.804C119.336 111.575 119.909 111.116 120.75 110.428C121.668 109.74 122.242 109.243 122.471 108.937C122.7 108.554 123.083 108.019 123.618 107.331C124.153 106.643 124.497 106.031 124.65 105.496C124.803 104.96 124.956 104.349 125.109 103.66C125.339 102.896 125.453 102.131 125.453 101.366C125.453 98.0016 124.345 95.2487 122.127 93.1076C119.909 90.9664 117.08 89.8958 113.639 89.8958C109.892 89.8958 106.757 91.0811 104.233 93.4517C101.71 95.8222 100.448 98.9192 100.448 102.743H87.8303C87.8303 95.784 90.3156 89.8576 95.2861 84.9635C100.257 79.993 106.374 77.5078 113.639 77.5078C120.75 77.5078 126.6 79.8018 131.189 84.39C135.777 88.9782 138.071 94.484 138.071 100.907C138.071 108.707 134.324 115.475 126.83 121.21C122.318 124.575 119.603 126.907 118.686 128.207C117.845 129.354 117.424 130.463 117.424 131.534V132.107H104.807Z" fill="#FA5D20"/>
</svg>
