<svg width="180" height="20" viewBox="0 0 180 20" fill="none" xmlns="http://www.w3.org/2000/svg">
<path d="M116.17 7.4625e-05H118.448C118.52 7.4625e-05 118.574 0.0358706 118.574 0.125937V2.4342C118.574 2.50636 118.52 2.56006 118.448 2.56006H116.17C116.098 2.56006 116.045 2.50636 116.045 2.4342V0.125937C116.045 0.0543458 116.098 7.4625e-05 116.17 7.4625e-05Z" fill="#2F3337"/>
<path d="M125.655 8.17024C125.1 8.1125 124.584 8.05881 124.186 7.97914C123.433 7.8348 123.2 7.5467 123.2 7.09636C123.2 6.41162 123.828 5.94339 125.029 5.94339C126.267 5.94339 127.378 6.39372 128.203 7.09636C128.257 7.15063 128.329 7.15063 128.383 7.07847L129.728 5.49305C129.782 5.43878 129.782 5.36719 129.711 5.31292C129.029 4.70035 127.666 3.83605 125.334 3.83605C122.715 3.83605 120.958 5.07851 120.958 7.2765C120.958 8.87981 121.819 9.63614 122.967 10.0322C123.727 10.2868 124.481 10.3515 125.207 10.4133C125.663 10.4519 126.107 10.4895 126.536 10.5726C127.378 10.7169 127.647 11.0593 127.647 11.5997C127.647 12.3382 126.984 12.7885 125.675 12.7885C124.15 12.7885 122.984 12.3024 122.07 11.4196C122.016 11.3653 121.927 11.3474 121.873 11.4196L120.563 13.0044C120.56 13.0142 120.556 13.024 120.553 13.0333C120.536 13.0772 120.52 13.1193 120.563 13.1488C121.227 13.8335 122.644 14.8779 125.46 14.8779C128.724 14.8779 130.015 13.2931 130.015 11.3832C129.943 9.36594 128.58 8.6275 127.397 8.3931C126.833 8.29264 126.224 8.22971 125.655 8.17024Z" fill="#2F3337"/>
<path d="M118.406 4.06561H116.237C116.165 4.06561 116.111 4.11988 116.111 4.19147L116.105 14.5001C116.105 14.5723 116.159 14.626 116.231 14.626H118.4C118.471 14.626 118.526 14.5723 118.526 14.5001L118.531 4.19147C118.531 4.11988 118.496 4.06561 118.406 4.06561Z" fill="#2F3337"/>
<path fill-rule="evenodd" clip-rule="evenodd" d="M137.569 12.5726C135.524 12.5726 134.484 11.1137 134.484 9.31232C134.484 7.52888 135.524 6.0878 137.569 6.0878C139.487 6.0878 140.635 7.54678 140.635 9.31232C140.635 11.1137 139.487 12.5726 137.569 12.5726ZM137.963 3.80033C136.475 3.80033 135.345 4.30436 134.573 5.13286V4.17792C134.573 4.10575 134.52 4.05206 134.448 4.05206H132.403C132.331 4.05206 132.277 4.10575 132.277 4.17792V18.9674C132.277 19.0396 132.331 19.0933 132.403 19.0933H134.555C134.627 19.0933 134.681 19.0396 134.681 18.9674V13.6176C135.452 14.374 136.528 14.8064 137.981 14.8064C141.119 14.8064 143.2 12.3925 143.2 9.27595C143.182 6.23214 141.119 3.80033 137.963 3.80033Z" fill="#2F3337"/>
<path d="M150.476 3.83582C150.978 3.83582 151.462 3.94379 151.821 4.07023C151.893 4.08813 151.893 4.14182 151.893 4.25036L151.301 6.46567C151.283 6.53784 151.229 6.55573 151.158 6.53784C150.78 6.41197 150.386 6.3398 150.064 6.3398C148.539 6.3398 147.624 7.60074 147.624 9.05972V14.4995C147.624 14.5717 147.57 14.626 147.499 14.626H145.347C145.275 14.626 145.221 14.5717 145.221 14.4995V4.19494C145.221 4.12277 145.275 4.0685 145.347 4.0685H147.391C147.463 4.0685 147.517 4.12277 147.517 4.19494V5.49283C148.288 4.21399 149.472 3.83582 150.476 3.83582Z" fill="#2F3337"/>
<path fill-rule="evenodd" clip-rule="evenodd" d="M174.69 12.6907C172.771 12.6907 171.623 11.2317 171.623 9.43038C171.623 7.64694 172.771 6.09617 174.69 6.09617C176.735 6.09617 177.775 7.66484 177.775 9.43038C177.775 11.2317 176.735 12.6907 174.69 12.6907ZM179.855 4.07601H177.811C177.739 4.07601 177.685 4.13028 177.685 4.20245V5.14123C176.896 4.31273 175.784 3.80812 174.295 3.80812C171.156 3.80812 169.076 6.33173 169.076 9.41249C169.076 12.5106 171.156 14.9424 174.295 14.9424C175.73 14.9424 176.824 14.492 177.596 13.7536V14.7622C177.596 16.6179 176.179 17.3384 174.888 17.3384C173.668 17.3384 172.538 16.7437 171.928 15.5549C171.91 15.4828 171.803 15.447 171.749 15.4828L169.74 16.4013C169.686 16.4192 169.668 16.5093 169.686 16.5457C170.242 17.8603 171.766 19.5 174.888 19.5C178.259 19.5 179.999 17.3921 179.999 14.7622V4.20245C179.981 4.13028 179.927 4.07601 179.855 4.07601Z" fill="#2F3337"/>
<path d="M153.434 4.08953H155.586C155.658 4.08953 155.712 4.1438 155.712 4.21539V14.5298C155.712 14.602 155.658 14.6562 155.586 14.6562H153.434C153.362 14.6562 153.309 14.602 153.309 14.5298V4.21539C153.309 4.1438 153.362 4.08953 153.434 4.08953Z" fill="#2F3337"/>
<path d="M163.553 3.87018C162.231 3.87018 161.175 4.29281 160.417 5.03182V4.20793C160.417 4.1375 160.364 4.08438 160.294 4.08438H158.286C158.215 4.08438 158.162 4.1375 158.162 4.20793V14.5299C158.162 14.6003 158.215 14.6528 158.286 14.6528H160.399C160.47 14.6528 160.523 14.6003 160.523 14.5299V8.739C160.523 7.34874 161.263 6.0878 162.795 6.0878C164.081 6.0878 164.945 7.01445 164.945 8.56291V14.5299C164.945 14.6003 164.997 14.6528 165.068 14.6528H167.182C167.252 14.6528 167.305 14.6003 167.305 14.5299V7.98209C167.288 5.83492 166.336 3.87018 163.553 3.87018Z" fill="#2F3337"/>
<path d="M153.388 0.00691056H155.656C155.728 0.00691056 155.782 0.0427065 155.782 0.132773V2.44103C155.782 2.5132 155.728 2.56689 155.656 2.56689H153.388C153.316 2.56689 153.262 2.5132 153.262 2.44103V0.132773C153.262 0.0611818 153.316 0.00691056 153.388 0.00691056Z" fill="#2F3337"/>
<path d="M101.242 5.18359H101.259H103.145H103.163C103.486 5.18359 103.72 4.94919 103.72 4.62414V0.565923C103.72 0.24145 103.486 0.00646782 103.163 0.00646782H103.145H101.259H101.242C100.919 0.00646782 100.685 0.24145 100.685 0.565923V4.62414C100.667 4.96709 100.9 5.18359 101.242 5.18359Z" fill="#FD5D3E"/>
<path d="M98.7067 7.34799L98.7245 7.33009L99.892 5.85091L99.9098 5.83301C100.108 5.58013 100.071 5.25566 99.8201 5.03915L96.6591 2.51381C96.4079 2.3152 96.0849 2.35157 95.8693 2.60388L95.8509 2.62235L94.684 4.10095L94.6656 4.11943C94.4684 4.37173 94.5041 4.6962 94.7558 4.91271L97.9163 7.43805C98.1859 7.63666 98.5089 7.60029 98.7067 7.34799Z" fill="#FD5D3E"/>
<path d="M98.8154 10.6672V10.6493L98.4021 8.80931V8.79141C98.3302 8.46636 98.0612 8.30413 97.7376 8.3763L93.8046 9.27812C93.4815 9.35029 93.32 9.62107 93.3919 9.94554V9.96402L93.8046 11.8035V11.8219C93.8764 12.1464 94.146 12.3086 94.4691 12.2365L98.4021 11.3347C98.7257 11.2625 98.8873 10.9917 98.8154 10.6672Z" fill="#FD5D3E"/>
<path d="M101.474 12.6522L101.457 12.6343L99.7683 11.8226L99.7505 11.8047C99.4453 11.6603 99.14 11.7683 99.0141 12.0749L97.2718 15.7185C97.1281 16.0251 97.2362 16.3317 97.5414 16.4581L97.5593 16.476L99.2475 17.2878L99.2653 17.3063C99.5706 17.45 99.8758 17.3421 100.002 17.0355L101.744 13.3918C101.869 13.1031 101.762 12.7966 101.474 12.6522Z" fill="#FD5D3E"/>
<path d="M104.668 11.8231L104.65 11.841L102.962 12.6527L102.944 12.6706C102.639 12.815 102.548 13.1216 102.674 13.4287L104.434 17.0718C104.578 17.379 104.883 17.469 105.188 17.3426L105.206 17.3247L106.895 16.5129L106.912 16.495C107.218 16.3507 107.308 16.0441 107.182 15.7375L105.422 12.0939C105.26 11.7873 104.955 11.6787 104.668 11.8231Z" fill="#FD5D3E"/>
<path d="M105.997 8.77237V8.79027L105.583 10.6303V10.6482C105.511 10.9732 105.673 11.2434 105.997 11.3156L109.93 12.2174C110.253 12.2896 110.522 12.1274 110.594 11.8029V11.7844L111.007 9.94498V9.92708C111.079 9.60203 110.917 9.33183 110.594 9.25966L106.661 8.35725C106.356 8.28508 106.086 8.4479 105.997 8.77237Z" fill="#FD5D3E"/>
<path d="M104.473 5.83272L104.49 5.85062L105.658 7.3298L105.676 7.3477C105.873 7.60058 106.196 7.63637 106.466 7.43834L109.626 4.913C109.878 4.71439 109.914 4.38992 109.717 4.11914L109.698 4.10124L108.531 2.62206L108.514 2.60416C108.316 2.35128 107.992 2.31549 107.723 2.51352L104.562 5.03886C104.311 5.25537 104.275 5.56194 104.473 5.83272Z" fill="#FD5D3E"/>
<path d="M0 4.03324H1.82796V11.8477L7.82287 4.03324H9.43872V14.7085H7.63145V6.85187L1.63654 14.7085H0V4.03324Z" fill="#2F3337"/>
<path d="M12.5254 4.03324H14.3534V8.43151H20.1568V4.03324H21.9848V14.7085H20.1568V10.0966H14.3534V14.7085H12.5254V4.03324Z" fill="#2F3337"/>
<path d="M29.9186 14.9219C26.7093 14.9219 24.3496 12.4664 24.3496 9.37062C24.3496 6.27486 26.7093 3.81995 29.9186 3.81995C32.1081 3.81995 33.8935 4.97293 34.8288 6.68074L33.2348 7.57737C32.6392 6.3603 31.4499 5.52776 29.9186 5.52776C27.7083 5.52776 26.1988 7.23557 26.1988 9.37062C26.1988 11.5057 27.7083 13.2135 29.9186 13.2135C31.4499 13.2135 32.6392 12.3809 33.2348 11.1639L34.8288 12.0611C33.8935 13.7689 32.1081 14.9219 29.9186 14.9219Z" fill="#2F3337"/>
<path d="M39.2706 5.72026H35.8906V4.03324H44.6269V5.72026H41.0986V14.7085H39.2706V5.72026Z" fill="#2F3337"/>
<path d="M46.416 4.03324H48.244V11.8477L54.2389 4.03324H55.8547V14.7085H54.0475V6.85187L48.0526 14.7085H46.416V4.03324Z" fill="#2F3337"/>
<path d="M61.0323 5.72026H57.6523V4.03324H66.3886V5.72026H62.8603V14.7085H61.0323V5.72026Z" fill="#2F3337"/>
<path d="M73.0556 16.6089C72.1842 18.5516 71.1639 19.3848 69.5273 19.3848C69.0169 19.3848 68.6553 19.3628 68.3369 19.2774V17.655C68.6553 17.6977 68.9318 17.7191 69.3779 17.7191C70.101 17.7191 70.7172 17.3559 71.2915 16.0962L72.1629 14.218L67.4648 4.03352H69.4842L73.162 12.0824L76.7754 4.03352H78.816L73.0556 16.6089Z" fill="#2F3337"/>
<path d="M83.2511 5.72026H79.8711V4.03324H88.6074V5.72026H85.0791V14.7085H83.2511V5.72026Z" fill="#2F3337"/>
</svg>
