<svg width="32" height="32" viewBox="0 0 32 32" fill="none" xmlns="http://www.w3.org/2000/svg">
<rect width="32" height="32" rx="8" fill="white"/>
<path d="M14.8255 11.7141H14.8475H17.1551H17.177C17.5726 11.7141 17.8583 11.4284 17.8583 11.0328V6.08802C17.8583 5.69244 17.5726 5.40674 17.177 5.40674H17.1551H14.8475H14.8255C14.43 5.40674 14.1443 5.69244 14.1443 6.08802V11.0328C14.1223 11.4503 14.408 11.7141 14.8255 11.7141Z" fill="#FA5D20"/>
<path d="M11.7266 14.3505L11.7486 14.3285L13.1771 12.5264L13.199 12.5044C13.4408 12.1967 13.3968 11.8012 13.0892 11.5374L9.22125 8.46069C8.91357 8.21895 8.51799 8.2629 8.25427 8.57058L8.2323 8.59255L6.80381 10.3946L6.78183 10.4166C6.54009 10.7243 6.58404 11.1199 6.89171 11.3836L10.7596 14.4603C11.0893 14.7021 11.4849 14.6581 11.7266 14.3505Z" fill="#FA5D20"/>
<path d="M11.8578 18.3952V18.3732L11.3523 16.1316V16.1096C11.2644 15.714 10.9348 15.5162 10.5392 15.6041L5.72628 16.703C5.33069 16.7909 5.13291 17.1205 5.22081 17.5161V17.5381L5.72628 19.7797V19.8017C5.81418 20.1973 6.14384 20.395 6.53942 20.3071L11.3523 19.2083C11.7479 19.1204 11.9457 18.7907 11.8578 18.3952Z" fill="#FA5D20"/>
<path d="M15.1106 20.8121L15.0887 20.7902L13.0228 19.8012L13.0009 19.7792C12.6273 19.6034 12.2537 19.7353 12.0998 20.1089L9.96808 24.5482C9.79226 24.9218 9.92412 25.2954 10.2977 25.4492L10.3197 25.4712L12.3855 26.4602L12.4075 26.4821C12.7811 26.658 13.1547 26.5261 13.3085 26.1525L15.4403 21.7132C15.5941 21.3616 15.4623 20.988 15.1106 20.8121Z" fill="#FA5D20"/>
<path d="M19.0221 19.8011L19.0001 19.8231L16.9343 20.812L16.9123 20.834C16.5387 21.0098 16.4288 21.3834 16.5827 21.757L18.7364 26.1963C18.9122 26.5699 19.2858 26.6798 19.6594 26.526L19.6814 26.504L21.7472 25.515L21.7692 25.4931C22.1428 25.3172 22.2527 24.9436 22.0988 24.57L19.9451 20.1307C19.7473 19.7571 19.3737 19.6253 19.0221 19.8011Z" fill="#FA5D20"/>
<path d="M20.6477 16.0877V16.1097L20.1422 18.3513V18.3733C20.0543 18.7689 20.2521 19.0985 20.6477 19.1864L25.4606 20.2853C25.8562 20.3732 26.1858 20.1754 26.2737 19.7798V19.7578L26.7792 17.5162V17.4942C26.8671 17.0987 26.6693 16.769 26.2737 16.6811L21.4608 15.5823C21.0872 15.4944 20.7575 15.6921 20.6477 16.0877Z" fill="#FA5D20"/>
<path d="M18.7806 12.5044L18.8026 12.5264L20.2311 14.3285L20.253 14.3505C20.4948 14.6581 20.8904 14.7021 21.22 14.4603L25.0879 11.3836C25.3956 11.1419 25.4396 10.7463 25.1978 10.4166L25.1758 10.3946L23.7473 8.59255L23.7254 8.57058C23.4836 8.2629 23.088 8.21895 22.7584 8.46069L18.8905 11.5374C18.5828 11.8012 18.5389 12.1748 18.7806 12.5044Z" fill="#FA5D20"/>
</svg>
