<svg xmlns="http://www.w3.org/2000/svg" width="42" height="40" fill="none"><path fill="#FA5D20" d="M18.755 11.904h4.472c.75 0 1.3-.544 1.3-1.287v-9.33c0-.743-.55-1.287-1.3-1.287h-4.472c-.75 0-1.299.544-1.299 1.287v9.33c-.04.796.509 1.287 1.3 1.287M12.855 16.88l.04-.04 2.719-3.397.04-.04c.455-.584.375-1.327-.214-1.818l-7.365-5.8c-.59-.45-1.34-.37-1.835.213l-.04.04-2.718 3.397-.04.04c-.456.584-.375 1.327.214 1.818l7.365 5.8c.63.45 1.379.371 1.834-.213M13.108 24.512v-.04l-.964-4.233v-.04c-.16-.743-.79-1.115-1.553-.955l-9.16 2.07c-.75.16-1.124.783-.964 1.54v.04l.964 4.233v.04c.161.743.79 1.114 1.554.955l9.159-2.07c.763-.173 1.138-.797.964-1.54M19.303 29.077l-.04-.04-3.938-1.871-.04-.04c-.71-.332-1.419-.08-1.714.624l-4.057 8.374c-.335.703-.08 1.407.63 1.698l.04.04 3.936 1.871.04.04c.71.332 1.42.08 1.714-.623l4.058-8.374c.295-.664.04-1.367-.63-1.7M26.737 27.166l-.04.04-3.937 1.87-.04.04c-.71.332-.924 1.036-.63 1.74l4.098 8.373c.334.703 1.044.916 1.754.624l.04-.04 3.937-1.871.04-.04c.71-.332.924-1.035.63-1.739L28.49 27.79c-.362-.704-1.085-.956-1.754-.624M29.853 20.159v.04l-.964 4.233v.04c-.16.743.215 1.366.964 1.54l9.16 2.07c.75.159 1.379-.213 1.553-.956v-.04l.964-4.233v-.04c.16-.743-.214-1.367-.964-1.54l-9.16-2.07c-.722-.172-1.352.2-1.553.956M26.286 13.404l.04.04 2.718 3.397.04.04c.455.584 1.219.663 1.835.212l7.364-5.8c.59-.45.67-1.207.215-1.818l-.04-.04-2.719-3.397-.04-.04c-.455-.584-1.218-.663-1.834-.212l-7.365 5.8c-.59.49-.67 1.194-.215 1.818"/></svg>